<?xml version="1.0" encoding="UTF-8" standalone="no"?>
<!-- Created with Inkscape (http://www.inkscape.org/) -->

<svg
   width="210mm"
   height="297mm"
   viewBox="0 0 210 297"
   version="1.1"
   id="svg1"
   inkscape:version="1.4.3 (0d15f75042, 2025-12-25)"
   sodipodi:docname="poker_9.svg"
   xmlns:inkscape="http://www.inkscape.org/namespaces/inkscape"
   xmlns:sodipodi="http://sodipodi.sourceforge.net/DTD/sodipodi-0.dtd"
   xmlns="http://www.w3.org/2000/svg"
   xmlns:svg="http://www.w3.org/2000/svg">
  <sodipodi:namedview
     id="namedview1"
     pagecolor="#ffffff"
     bordercolor="#666666"
     borderopacity="1.0"
     inkscape:showpageshadow="2"
     inkscape:pageopacity="0.0"
     inkscape:pagecheckerboard="0"
     inkscape:deskcolor="#d1d1d1"
     inkscape:document-units="mm"
     showgrid="false"
     inkscape:zoom="0.86300161"
     inkscape:cx="205.09811"
     inkscape:cy="611.8181"
     inkscape:window-width="1918"
     inkscape:window-height="1059"
     inkscape:window-x="1"
     inkscape:window-y="0"
     inkscape:window-maximized="1"
     inkscape:current-layer="layer1" />
  <defs
     id="defs1" />
  <g
     inkscape:label="Layer 1"
     inkscape:groupmode="layer"
     id="layer1">
    <text
       xml:space="preserve"
       style="font-style:normal;font-variant:normal;font-weight:normal;font-stretch:normal;font-size:111.767px;line-height:100%;font-family:'URW Bookman';-inkscape-font-specification:'URW Bookman, Normal';font-variant-ligatures:normal;font-variant-caps:normal;font-variant-numeric:normal;font-variant-east-asian:normal;text-align:center;text-decoration-color:#000000;letter-spacing:0px;word-spacing:0px;writing-mode:lr-tb;direction:ltr;text-anchor:middle;white-space:pre;fill:#000000;stroke:none;stroke-width:0.2;stroke-miterlimit:10"
       x="850.15833"
       y="107.15965"
       id="text16"><tspan
         sodipodi:role="line"
         id="tspan16"
         style="font-style:normal;font-variant:normal;font-weight:normal;font-stretch:normal;font-size:111.767px;font-family:'URW Bookman';-inkscape-font-specification:'URW Bookman, Normal';font-variant-ligatures:normal;font-variant-caps:normal;font-variant-numeric:normal;font-variant-east-asian:normal;fill:#000000;stroke:none;stroke-width:0.2"
         x="850.15833"
         y="107.15965">KQJ</tspan></text>
    <g
       id="g37"
       transform="matrix(0.25,0,0,0.25,77.042958,93.873124)"
       style="stroke-width:3.99998">
      <g
         id="g36"
         transform="translate(-1.8427011)"
         style="stroke-width:3.99998">
        <g
           id="g34"
           transform="translate(7.5875912,0.21678832)"
           style="stroke-width:3.99998">
          <path
             style="fill:#000000;stroke:none;stroke-width:3.99998;stroke-linejoin:round;stroke-miterlimit:10"
             d="m 143.00671,186.62452 c -0.45113,-3.49636 -0.0608,-6.35286 0.36219,-8.37011 4.84974,6.98835 12.67252,3.2904 12.76267,-2.69226 0.0732,-4.85828 -4.62446,-6.25184 -8.50277,-5.60871 -1.31367,0.21785 -2.98136,1.77875 -3.44175,1.29908 -0.58496,-0.5921 1.4733,-1.85424 1.90048,-3.14823 1.26919,-3.84463 0.381,-9.10036 -5.65996,-9.10036 -6.07924,0 -7.04591,5.1921 -5.88375,8.97334 0.4283,1.39356 2.4258,2.63815 2.003,3.27525 -0.48825,0.65304 -2.23189,-1.02977 -3.61238,-1.15476 -3.55207,-0.32163 -7.66602,1.19579 -7.66602,5.46439 0,6.53547 8.05847,9.78765 12.40476,2.84548 0.96665,2.16692 0.62488,4.67826 0.0701,8.28999 1.40694,1.02893 4.17276,0.93607 5.26343,-0.0731 z"
             id="path26"
             sodipodi:nodetypes="ccsscssscsscccc" />
          <path
             style="fill:#000000;stroke:none;stroke-width:3.99998;stroke-linejoin:round;stroke-miterlimit:10"
             d="m 143.00671,217.17478 c -0.45113,-3.49637 -0.0608,-6.35286 0.36219,-8.37011 4.84974,6.98835 12.67252,3.29039 12.76267,-2.69227 0.0732,-4.85827 -4.62446,-6.25183 -8.50277,-5.6087 -1.31367,0.21784 -2.98136,1.77874 -3.44175,1.29908 -0.58496,-0.5921 1.4733,-1.85424 1.90048,-3.14823 1.26919,-3.84463 0.381,-9.10037 -5.65996,-9.10037 -6.07924,0 -7.04591,5.1921 -5.88375,8.97335 0.4283,1.39355 2.4258,2.63815 2.003,3.27525 -0.48825,0.65303 -2.23189,-1.02977 -3.61238,-1.15477 -3.55207,-0.32162 -7.66602,1.19579 -7.66602,5.46439 0,6.53547 8.05847,9.78765 12.40476,2.84549 0.96665,2.16691 0.62488,4.67825 0.0701,8.28998 1.40694,1.02893 4.17276,0.93607 5.26343,-0.073 z"
             id="path27"
             sodipodi:nodetypes="ccsscssscsscccc" />
          <path
             style="fill:#000000;stroke:none;stroke-width:3.99998;stroke-linejoin:round;stroke-miterlimit:10"
             d="m 143.00671,253.33418 c -0.45113,3.49637 -0.0608,6.35286 0.36219,8.37011 4.84974,-6.98835 12.67252,-3.29039 12.76267,2.69227 0.0732,4.85827 -4.62446,6.25183 -8.50277,5.6087 -1.31367,-0.21784 -2.98136,-1.77874 -3.44175,-1.29908 -0.58496,0.5921 1.4733,1.85424 1.90048,3.14823 1.26919,3.84463 0.381,9.10037 -5.65996,9.10037 -6.07924,0 -7.04591,-5.1921 -5.88375,-8.97335 0.4283,-1.39355 2.4258,-2.63815 2.003,-3.27525 -0.48825,-0.65303 -2.23189,1.02977 -3.61238,1.15477 -3.55207,0.32162 -7.66602,-1.19579 -7.66602,-5.46439 0,-6.53547 8.05847,-9.78765 12.40476,-2.84549 0.96665,-2.16691 0.62488,-4.67825 0.0701,-8.28998 1.40694,-1.02893 4.17276,-0.93607 5.26343,0.073 z"
             id="path28"
             sodipodi:nodetypes="ccsscssscsscccc" />
          <path
             style="fill:#000000;stroke:none;stroke-width:3.99998;stroke-linejoin:round;stroke-miterlimit:10"
             d="m 143.00671,222.78393 c -0.45113,3.49636 -0.0608,6.35286 0.36219,8.37011 4.84974,-6.98835 12.67252,-3.2904 12.76267,2.69226 0.0732,4.85828 -4.62446,6.25184 -8.50277,5.60871 -1.31367,-0.21785 -2.98136,-1.77875 -3.44175,-1.29908 -0.58496,0.5921 1.4733,1.85424 1.90048,3.14823 1.26919,3.84463 0.381,9.10036 -5.65996,9.10036 -6.07924,0 -7.04591,-5.1921 -5.88375,-8.97334 0.4283,-1.39356 2.4258,-2.63815 2.003,-3.27525 -0.48825,-0.65304 -2.23189,1.02977 -3.61238,1.15476 -3.55207,0.32163 -7.66602,-1.19579 -7.66602,-5.46439 0,-6.53547 8.05847,-9.78765 12.40476,-2.84548 0.96665,-2.16692 0.62488,-4.67826 0.0701,-8.28999 1.40694,-1.02893 4.17276,-0.93607 5.26343,0.0731 z"
             id="path29"
             sodipodi:nodetypes="ccsscssscsscccc" />
        </g>
        <g
           id="g35"
           style="stroke-width:3.99998">
          <path
             style="fill:#000000;stroke:none;stroke-width:3.99998;stroke-linejoin:round;stroke-miterlimit:10"
             d="m 71.466564,186.62452 c -0.451131,-3.49636 -0.06078,-6.35286 0.362186,-8.37011 4.849742,6.98835 12.672521,3.2904 12.762672,-2.69226 0.07322,-4.85828 -4.624455,-6.25184 -8.502764,-5.60871 -1.313677,0.21785 -2.981367,1.77875 -3.441757,1.29908 -0.584961,-0.5921 1.473304,-1.85424 1.900479,-3.14823 1.269196,-3.84463 0.381002,-9.10036 -5.659957,-9.10036 -6.079235,0 -7.045905,5.1921 -5.883747,8.97334 0.4283,1.39356 2.425796,2.63815 2.002998,3.27525 -0.488251,0.65304 -2.23189,-1.02977 -3.612383,-1.15476 -3.55207,-0.32163 -7.666018,1.19579 -7.666018,5.46439 0,6.53547 8.058466,9.78765 12.404762,2.84548 0.966646,2.16692 0.624883,4.67826 0.07007,8.28999 1.406938,1.02893 4.172757,0.93607 5.263431,-0.0731 z"
             id="path30"
             sodipodi:nodetypes="ccsscssscsscccc" />
          <path
             style="fill:#000000;stroke:none;stroke-width:3.99998;stroke-linejoin:round;stroke-miterlimit:10"
             d="m 71.466564,217.17478 c -0.451131,-3.49637 -0.06078,-6.35286 0.362186,-8.37011 4.849742,6.98835 12.672521,3.29039 12.762672,-2.69227 0.07322,-4.85827 -4.624455,-6.25183 -8.502764,-5.6087 -1.313677,0.21784 -2.981367,1.77874 -3.441757,1.29908 -0.584961,-0.5921 1.473304,-1.85424 1.900479,-3.14823 1.269196,-3.84463 0.381002,-9.10037 -5.659957,-9.10037 -6.079235,0 -7.045905,5.1921 -5.883747,8.97335 0.4283,1.39355 2.425796,2.63815 2.002998,3.27525 -0.488251,0.65303 -2.23189,-1.02977 -3.612383,-1.15477 -3.55207,-0.32162 -7.666018,1.19579 -7.666018,5.46439 0,6.53547 8.058466,9.78765 12.404762,2.84549 0.966646,2.16691 0.624883,4.67825 0.07007,8.28998 1.406938,1.02893 4.172757,0.93607 5.263431,-0.073 z"
             id="path31"
             sodipodi:nodetypes="ccsscssscsscccc" />
          <path
             style="fill:#000000;stroke:none;stroke-width:3.99998;stroke-linejoin:round;stroke-miterlimit:10"
             d="m 71.466564,253.33418 c -0.451131,3.49637 -0.06078,6.35286 0.362186,8.37011 4.849742,-6.98835 12.672521,-3.29039 12.762672,2.69227 0.07322,4.85827 -4.624455,6.25183 -8.502764,5.6087 -1.313677,-0.21784 -2.981367,-1.77874 -3.441757,-1.29908 -0.584961,0.5921 1.473304,1.85424 1.900479,3.14823 1.269196,3.84463 0.381002,9.10037 -5.659957,9.10037 -6.079235,0 -7.045905,-5.1921 -5.883747,-8.97335 0.4283,-1.39355 2.425796,-2.63815 2.002998,-3.27525 -0.488251,-0.65303 -2.23189,1.02977 -3.612383,1.15477 -3.55207,0.32162 -7.666018,-1.19579 -7.666018,-5.46439 0,-6.53547 8.058466,-9.78765 12.404762,-2.84549 0.966646,-2.16691 0.624883,-4.67825 0.07007,-8.28998 1.406938,-1.02893 4.172757,-0.93607 5.263431,0.073 z"
             id="path32"
             sodipodi:nodetypes="ccsscssscsscccc" />
          <path
             style="fill:#000000;stroke:none;stroke-width:3.99998;stroke-linejoin:round;stroke-miterlimit:10"
             d="m 71.466564,222.78393 c -0.451131,3.49636 -0.06078,6.35286 0.362186,8.37011 4.849742,-6.98835 12.672521,-3.2904 12.762672,2.69226 0.07322,4.85828 -4.624455,6.25184 -8.502764,5.60871 -1.313677,-0.21785 -2.981367,-1.77875 -3.441757,-1.29908 -0.584961,0.5921 1.473304,1.85424 1.900479,3.14823 1.269196,3.84463 0.381002,9.10036 -5.659957,9.10036 -6.079235,0 -7.045905,-5.1921 -5.883747,-8.97334 0.4283,-1.39356 2.425796,-2.63815 2.002998,-3.27525 -0.488251,-0.65304 -2.23189,1.02977 -3.612383,1.15476 -3.55207,0.32163 -7.666018,-1.19579 -7.666018,-5.46439 0,-6.53547 8.058466,-9.78765 12.404762,-2.84548 0.966646,-2.16692 0.624883,-4.67826 0.07007,-8.28999 1.406938,-1.02893 4.172757,-0.93607 5.263431,0.0731 z"
             id="path33"
             sodipodi:nodetypes="ccsscssscsscccc" />
        </g>
      </g>
      <path
         style="fill:#000000;stroke:none;stroke-width:3.99998;stroke-linejoin:round;stroke-miterlimit:10"
         d="m 109.18773,232.78354 c -0.45113,-3.49637 -0.0608,-6.35286 0.36219,-8.37011 4.84974,6.98835 12.67252,3.29039 12.76267,-2.69227 0.0732,-4.85827 -4.62446,-6.25183 -8.50277,-5.6087 -1.31367,0.21784 -2.98136,1.77874 -3.44175,1.29908 -0.58496,-0.5921 1.4733,-1.85424 1.90048,-3.14823 1.26919,-3.84463 0.381,-9.10037 -5.65996,-9.10037 -6.07924,0 -7.045908,5.1921 -5.88375,8.97335 0.4283,1.39355 2.4258,2.63815 2.003,3.27525 -0.48825,0.65303 -2.23189,-1.02977 -3.612378,-1.15477 -3.55207,-0.32162 -7.66602,1.19579 -7.66602,5.46439 0,6.53547 8.05847,9.78765 12.404758,2.84549 0.96665,2.16691 0.62488,4.67825 0.0701,8.28998 1.40694,1.02893 4.17276,0.93607 5.26343,-0.073 z"
         id="path34"
         sodipodi:nodetypes="ccsscssscsscccc" />
    </g>
  </g>
</svg>
