<?xml version="1.0" encoding="UTF-8" standalone="no"?>
<!-- Created with Inkscape (http://www.inkscape.org/) -->

<svg
   width="32mm"
   height="32mm"
   viewBox="0 0 32 32"
   version="1.1"
   id="svg1"
   inkscape:version="1.4.3 (0d15f75042, 2025-12-25)"
   sodipodi:docname="poker2_Q.svg"
   xmlns:inkscape="http://www.inkscape.org/namespaces/inkscape"
   xmlns:sodipodi="http://sodipodi.sourceforge.net/DTD/sodipodi-0.dtd"
   xmlns="http://www.w3.org/2000/svg"
   xmlns:svg="http://www.w3.org/2000/svg">
  <sodipodi:namedview
     id="namedview1"
     pagecolor="#ffffff"
     bordercolor="#666666"
     borderopacity="1.0"
     inkscape:showpageshadow="2"
     inkscape:pageopacity="0.0"
     inkscape:pagecheckerboard="0"
     inkscape:deskcolor="#d1d1d1"
     inkscape:document-units="mm"
     inkscape:zoom="2.245064"
     inkscape:cx="-102.00155"
     inkscape:cy="73.939985"
     inkscape:window-width="1918"
     inkscape:window-height="1059"
     inkscape:window-x="1"
     inkscape:window-y="0"
     inkscape:window-maximized="1"
     inkscape:current-layer="layer1" />
  <defs
     id="defs1" />
  <g
     inkscape:label="Layer 1"
     inkscape:groupmode="layer"
     id="layer1"
     transform="translate(0,-265)">
    <path
       id="text8"
       style="font-size:17.6389px;line-height:100%;font-family:'URW Bookman';-inkscape-font-specification:'URW Bookman, Normal';text-align:center;letter-spacing:0px;word-spacing:0px;text-anchor:middle;white-space:pre;stroke-width:0.200001;stroke-miterlimit:10"
       inkscape:transform-center-x="5.8642872"
       inkscape:transform-center-y="-7.3361709"
       d="m 20.39198,267.63854 c -3.651252,0 -6.473507,2.76937 -6.473507,6.33243 0,3.43959 2.82253,6.13864 6.403227,6.13864 1.340556,0 2.557328,-0.31784 3.65094,-0.97048 0.194028,0.37042 0.264583,0.56468 0.264583,0.86455 0,1.41111 -1.728197,2.43396 -4.07417,2.43396 -0.899584,0 -1.90531,-0.17628 -2.434477,-0.42323 -0.564444,-0.26458 -0.687813,-0.42344 -0.687813,-0.89969 -10e-7,-0.33396 -0.117026,-0.60455 -0.322978,-0.786 -0.748701,-0.89087 -2.708353,-1.56011 -4.915979,-1.56011 -3.2455572,0 -5.5913894,1.35851 -5.5913894,3.22823 0,0.56445 0.211873,1.04065 0.74104,1.72857 -1.1641674,1.28764 -1.6582967,2.55774 -1.6582967,4.33927 0,3.65125 2.6459688,6.29678 6.3148601,6.29678 3.651252,0 6.473506,-2.76937 6.473506,-6.33243 0,-3.43959 -2.82253,-6.13813 -6.403226,-6.13813 -1.340557,0 -2.5573281,0.31733 -3.6509399,0.96997 -0.1940279,-0.37042 -0.2645834,-0.56416 -0.2645834,-0.86403 0,-1.41111 1.7287126,-2.43448 4.0746863,-2.43448 0.899584,0 1.904793,0.1768 2.43396,0.42375 0.564445,0.26458 0.687813,0.42292 0.687813,0.89917 10e-7,0.33395 0.117028,0.60454 0.322978,0.78599 0.7487,0.89087 2.708353,1.56012 4.915979,1.56012 3.245558,0 5.59139,-1.35799 5.59139,-3.22771 0,-0.56445 -0.211873,-1.04066 -0.74104,-1.72858 1.164168,-1.28764 1.658297,-2.55774 1.658297,-4.33927 0,-3.65125 -2.645968,-6.29729 -6.31486,-6.29729 z m -0.01757,0.84698 c 2.557641,0 4.250903,2.15159 4.250903,5.37951 0,1.34056 -0.211562,2.41656 -0.687813,3.56309 -1.164167,-0.42334 -1.569792,-0.51159 -2.39882,-0.51159 -1.499307,0 -2.522327,0.58211 -2.522327,1.44642 0,0.37042 0.158852,0.60013 0.635103,0.95291 -1.499307,-0.35278 -2.169789,-0.82899 -2.857706,-1.99316 C 16.264583,276.40548 16,275.32927 16,274.07691 c 0,-3.33376 1.781492,-5.59139 4.37441,-5.59139 z m 1.023193,9.4542 c 0.635,0 1.164304,0.12375 1.816943,0.45889 -0.582083,0.56444 -1.446422,0.91725 -2.240173,0.91725 -0.670278,0 -1.11156,-0.22962 -1.11156,-0.58239 0,-0.45862 0.635206,-0.79375 1.53479,-0.79375 z m -10.371977,4.74493 c 0.670279,0 1.11156,0.22911 1.11156,0.58188 0,0.45862 -0.635206,0.79375 -1.53479,0.79375 -0.6349999,0 -1.1637866,-0.12323 -1.8164259,-0.45837 0.5820837,-0.56444 1.4459059,-0.91726 2.2396559,-0.91726 z m 1.322917,0 c 1.499306,0.35278 2.16979,0.82899 2.857707,1.99316 0.529167,0.91722 0.79375,1.99344 0.79375,3.2458 0,3.33376 -1.781492,5.59139 -4.37441,5.59139 -2.5576408,0 -4.2509034,-2.15212 -4.2509034,-5.38004 0,-1.34056 0.211563,-2.41656 0.6878133,-3.56309 1.1641674,0.42334 1.5697921,0.5116 2.3988201,0.5116 1.499307,0 2.522326,-0.58211 2.522326,-1.44642 0,-0.37042 -0.158853,-0.59962 -0.635103,-0.9524 z" />
    <path
       style="fill:#000000;stroke:none;stroke-width:0.999999;stroke-linejoin:round;stroke-miterlimit:10"
       d="m 26.125592,291.57645 c 1.180652,-0.89129 2.917347,-0.76656 3.104316,0.0996 0.21827,1.01112 -2.205023,1.48993 -2.916533,1.264 0.767905,0.46294 2.31232,2.52516 1.443285,3.08726 -0.770392,0.49831 -1.890115,-0.72057 -2.489051,-2.34717 0.34904,1.5923 -1.081736,2.78862 -1.871395,2.48216 -0.794109,-0.3082 -0.4736,-2.30939 0.76645,-3.0527 -1.347726,0.40006 -3.251681,0.5168 -3.27989,-0.35482 -0.03492,-1.07896 1.835837,-1.55039 3.198969,-0.89487 -1.237123,-0.78731 -2.013035,-2.72101 -1.051821,-3.10093 0.81923,-0.3238 1.916744,0.79605 1.889786,2.19331 2.478185,-5.1212 6.148306,-11.69264 5.417631,-13.7967 -0.283803,-0.81725 0.741395,-0.78355 0.918207,-0.24789 0.86047,2.6067 -2.640086,9.21915 -5.129953,14.66878 z"
       id="path1"
       sodipodi:nodetypes="cscscscscscssc"
       inkscape:transform-center-x="-10.135433"
       inkscape:transform-center-y="5.3657589" />
    <path
       style="fill:#000000;stroke:none;stroke-width:0.999999;stroke-linejoin:round;stroke-miterlimit:10"
       d="m 5.8744087,270.42355 c -1.180652,0.89129 -2.917347,0.76656 -3.104316,-0.0996 -0.21827,-1.01112 2.205023,-1.48993 2.916533,-1.264 -0.767905,-0.46294 -2.31232,-2.52516 -1.443285,-3.08726 0.770392,-0.49831 1.890115,0.72057 2.489051,2.34717 -0.34904,-1.5923 1.081736,-2.78862 1.871395,-2.48216 0.794109,0.3082 0.4736,2.30939 -0.76645,3.0527 1.347726,-0.40006 3.2516813,-0.5168 3.2798903,0.35482 0.03492,1.07896 -1.8358373,1.55039 -3.1989693,0.89487 1.237123,0.78731 2.013035,2.72101 1.051821,3.10093 -0.81923,0.3238 -1.916744,-0.79605 -1.889786,-2.19331 -2.478185,5.1212 -6.14830597,11.69264 -5.417631,13.7967 0.283803,0.81725 -0.74139497,0.78355 -0.91820697,0.24789 -0.86047,-2.6067 2.64008597,-9.21915 5.12995297,-14.66878 z"
       id="path2"
       sodipodi:nodetypes="cscscscscscssc"
       inkscape:transform-center-x="10.135433"
       inkscape:transform-center-y="-5.3657606" />
  </g>
</svg>
