<?xml version="1.0" encoding="UTF-8" standalone="no"?>
<!-- Created with Inkscape (http://www.inkscape.org/) -->

<svg
   width="32mm"
   height="32mm"
   viewBox="0 0 32 32"
   version="1.1"
   id="svg1"
   inkscape:version="1.4.3 (0d15f75042, 2025-12-25)"
   sodipodi:docname="poker2_10.svg"
   xmlns:inkscape="http://www.inkscape.org/namespaces/inkscape"
   xmlns:sodipodi="http://sodipodi.sourceforge.net/DTD/sodipodi-0.dtd"
   xmlns="http://www.w3.org/2000/svg"
   xmlns:svg="http://www.w3.org/2000/svg">
  <sodipodi:namedview
     id="namedview1"
     pagecolor="#ffffff"
     bordercolor="#666666"
     borderopacity="1.0"
     inkscape:showpageshadow="2"
     inkscape:pageopacity="0.0"
     inkscape:pagecheckerboard="0"
     inkscape:deskcolor="#d1d1d1"
     inkscape:document-units="mm"
     inkscape:zoom="3.175"
     inkscape:cx="144.56693"
     inkscape:cy="1.7322835"
     inkscape:window-width="1918"
     inkscape:window-height="1058"
     inkscape:window-x="1"
     inkscape:window-y="1080"
     inkscape:window-maximized="1"
     inkscape:current-layer="layer1" />
  <defs
     id="defs1" />
  <g
     inkscape:label="Layer 1"
     inkscape:groupmode="layer"
     id="layer1"
     transform="translate(0,-265)">
    <g
       id="g1"
       transform="translate(1.362535,0.70509589)">
      <path
         id="path72"
         style="stroke-width:0.999999;stroke-linejoin:round;stroke-miterlimit:10"
         d="m 14.63747,269.18976 1.62692,3.2548 -1.62692,3.2548 -1.62692,-3.2548 z" />
      <path
         id="path73"
         style="stroke-width:0.999999;stroke-linejoin:round;stroke-miterlimit:10"
         d="m 14.63747,284.89044 1.62692,3.25481 -1.62692,3.2548 -1.62692,-3.2548 z" />
      <path
         id="path74"
         style="stroke-width:0.999999;stroke-linejoin:round;stroke-miterlimit:10"
         d="m 4.27275,265.26458 1.62692,3.25481 -1.62692,3.2548 -1.62692,-3.2548 z" />
      <path
         id="path75"
         style="stroke-width:0.999999;stroke-linejoin:round;stroke-miterlimit:10"
         d="m 4.27275,273.11493 1.62692,3.25481 -1.62692,3.2548 -1.62692,-3.2548 z" />
      <path
         id="path76"
         style="stroke-width:0.999999;stroke-linejoin:round;stroke-miterlimit:10"
         d="m 4.27275,280.96527 1.62692,3.25481 -1.62692,3.2548 -1.62692,-3.2548 z" />
      <path
         id="path77"
         style="stroke-width:0.999999;stroke-linejoin:round;stroke-miterlimit:10"
         d="m 4.27275,288.81562 1.62692,3.25481 -1.62692,3.2548 -1.62692,-3.2548 z" />
      <path
         id="path78"
         style="stroke-width:0.999999;stroke-linejoin:round;stroke-miterlimit:10"
         d="m 25.00218,265.26458 1.62692,3.25481 -1.62692,3.2548 -1.62692,-3.2548 z" />
      <path
         id="path79"
         style="stroke-width:0.999999;stroke-linejoin:round;stroke-miterlimit:10"
         d="m 25.00218,273.11493 1.62692,3.25481 -1.62692,3.2548 -1.62692,-3.2548 z" />
      <path
         id="path80"
         style="stroke-width:0.999999;stroke-linejoin:round;stroke-miterlimit:10"
         d="m 25.00218,280.96527 1.62692,3.25481 -1.62692,3.2548 -1.62692,-3.2548 z" />
      <path
         id="path81"
         style="stroke-width:0.999999;stroke-linejoin:round;stroke-miterlimit:10"
         d="m 25.00218,288.81562 1.62692,3.25481 -1.62692,3.2548 -1.62692,-3.2548 z" />
    </g>
  </g>
</svg>
