<?xml version="1.0" encoding="UTF-8" standalone="no"?>
<!-- Created with Inkscape (http://www.inkscape.org/) -->

<svg
   width="210mm"
   height="297mm"
   viewBox="0 0 210 297"
   version="1.1"
   id="svg1"
   inkscape:version="1.4.3 (0d15f75042, 2025-12-25)"
   sodipodi:docname="poker_Q.svg"
   xmlns:inkscape="http://www.inkscape.org/namespaces/inkscape"
   xmlns:sodipodi="http://sodipodi.sourceforge.net/DTD/sodipodi-0.dtd"
   xmlns="http://www.w3.org/2000/svg"
   xmlns:svg="http://www.w3.org/2000/svg">
  <sodipodi:namedview
     id="namedview1"
     pagecolor="#ffffff"
     bordercolor="#666666"
     borderopacity="1.0"
     inkscape:showpageshadow="2"
     inkscape:pageopacity="0.0"
     inkscape:pagecheckerboard="0"
     inkscape:deskcolor="#d1d1d1"
     inkscape:document-units="mm"
     inkscape:zoom="1.5892817"
     inkscape:cx="368.09082"
     inkscape:cy="580.4509"
     inkscape:window-width="1918"
     inkscape:window-height="1058"
     inkscape:window-x="1"
     inkscape:window-y="1080"
     inkscape:window-maximized="1"
     inkscape:current-layer="layer1" />
  <defs
     id="defs1" />
  <g
     inkscape:label="Layer 1"
     inkscape:groupmode="layer"
     id="layer1">
    <path
       d="m 77.100532,138.19012 c 1.30387,-1.44215 1.857027,-2.86456 1.857027,-4.85987 0,-4.08941 -2.96334,-7.05275 -7.072505,-7.05275 -4.089409,0 -7.250305,3.10163 -7.250305,7.09226 0,3.85234 3.160896,6.87495 7.171283,6.87495 1.501425,0 2.864562,-0.3556 4.089409,-1.08656 0.217311,0.41487 0.296334,0.63218 0.296334,0.96802 0,1.58045 -1.936049,2.72628 -4.563544,2.72628 -1.007535,0 -2.133605,-0.19756 -2.726273,-0.47414 -0.632179,-0.29633 -0.770468,-0.47413 -0.770468,-1.00753 0,-0.71121 -0.474134,-1.16558 -1.205092,-1.16558 -0.67169,0 -1.126069,0.37535 -1.126069,0.90875 0,1.40265 2.706517,2.6275 5.867413,2.6275 3.635031,0 6.262526,-1.52118 6.262526,-3.61528 0,-0.63218 -0.237068,-1.16558 -0.829736,-1.93605 z m -1.244602,-0.94826 c -1.30387,-0.47414 -1.758249,-0.57292 -2.686762,-0.57292 -1.679226,0 -2.825051,0.65194 -2.825051,1.61996 0,0.41487 0.177801,0.67169 0.711202,1.06681 -1.679226,-0.39512 -2.429939,-0.92852 -3.200407,-2.23239 -0.592668,-1.02729 -0.889002,-2.23238 -0.889002,-3.63503 0,-3.73381 1.995315,-6.26252 4.899388,-6.26252 2.864562,0 4.7611,2.41018 4.7611,6.02545 0,1.50143 -0.237067,2.70652 -0.770468,3.99064 z m -0.80998,1.08655 c -0.651935,0.63218 -1.619959,1.0273 -2.508961,1.0273 -0.750713,0 -1.244603,-0.25683 -1.244603,-0.65194 0,-0.51365 0.711202,-0.889 1.718737,-0.889 0.711202,0 1.30387,0.13829 2.034827,0.51364 z"
       id="text7"
       style="font-size:19.7556px;line-height:100%;font-family:'URW Bookman';-inkscape-font-specification:'URW Bookman, Normal';text-align:center;letter-spacing:0px;word-spacing:0px;text-anchor:middle;white-space:pre;stroke-width:0.200001;stroke-miterlimit:10"
       aria-label="Q" />
    <path
       style="fill:#000000;stroke:none;stroke-width:1;stroke-linejoin:round;stroke-miterlimit:10"
       d="m 87.666172,141.51143 c 1.14139,-1.57624 2.27488,-3.04486 0.20998,-6.0197 -1.35057,-1.94572 -1.46992,-3.11483 0.10504,-4.54976 1.80204,-1.64186 0.62997,-4.09478 0.66496,-5.63471 1.32994,1.11994 3.43458,1.29835 3.60481,-0.41997 0.19371,-1.95532 -1.60991,-2.37988 -3.39482,-1.50492 0.94495,-1.39992 0.90555,-3.50732 -1.08493,-3.53482 -1.8958,-0.0261 -2.0299,2.34487 -1.11995,3.53482 -1.57492,-0.45497 -3.39163,-0.31086 -3.25482,1.36493 0.13999,1.71491 1.95988,2.65987 3.84978,0.69996 0.07,1.46993 1.66929,3.17783 -0.0349,4.72475 -1.80255,1.63612 -1.7849,3.60481 -0.20998,5.73971 2.22726,3.01918 0.27997,4.54975 -0.27999,5.24972 -0.55997,0.69996 0.61396,0.80706 0.94495,0.34999 z"
       id="path9"
       sodipodi:nodetypes="ssscscscscssss" />
    <path
       id="path93"
       style="fill:#000000;stroke-width:1;stroke-linejoin:round;stroke-miterlimit:10"
       d="m 69.368332,120.00276 c -0.0333,-0.62768 1.63105,-0.60281 2.98145,-0.56299 1.31035,0.0386 2.74476,-0.0864 2.73634,0.56299 -0.008,0.64687 -1.19602,0.51461 -2.76104,0.55942 -1.29576,0.0371 -2.92744,-0.008 -2.95675,-0.55942 z m -1.03021,-4.10576 c -0.85566,0.12422 -0.64503,1.48054 -0.16598,1.45969 -1.08709,1.98144 -3.524834,2.46127 -5.527134,1.25155 0.250287,-0.37542 -0.49765,-1.35357 -1.251554,-0.62549 -0.746459,0.72088 0.208687,1.5847 0.73012,1.25099 0.813432,1.00115 1.164157,1.1748 1.679049,3.62328 2.346059,-0.90166 6.783329,-1.12552 8.478479,-1.12552 1.69515,0 6.13192,0.22388 8.47798,1.12552 0.51489,-2.44848 0.86619,-2.62213 1.67962,-3.62328 0.52143,0.33371 1.47602,-0.53011 0.72957,-1.25099 -0.75391,-0.72808 -1.50129,0.25007 -1.251,0.62549 -2.00231,1.20972 -4.44061,0.72989 -5.5277,-1.25155 0.47906,0.0209 0.69053,-1.33857 -0.16547,-1.45969 -0.88442,-0.12513 -1.0137,1.02195 -0.55307,1.3348 -0.62394,1.08386 -2.30995,1.20938 -3.38993,1.20938 -1.07997,0 -2.76648,-0.12552 -3.39042,-1.20938 0.49016,-0.3329 0.23422,-1.44902 -0.55256,-1.3348 z"
       sodipodi:nodetypes="ssssssccsccsccsccscscs" />
  </g>
</svg>
