<?xml version="1.0" encoding="UTF-8" standalone="no"?>
<!-- Created with Inkscape (http://www.inkscape.org/) -->

<svg
   width="32mm"
   height="32mm"
   viewBox="0 0 32 32"
   version="1.1"
   id="svg1"
   inkscape:version="1.4.3 (0d15f75042, 2025-12-25)"
   sodipodi:docname="poker2_9.svg"
   xmlns:inkscape="http://www.inkscape.org/namespaces/inkscape"
   xmlns:sodipodi="http://sodipodi.sourceforge.net/DTD/sodipodi-0.dtd"
   xmlns="http://www.w3.org/2000/svg"
   xmlns:svg="http://www.w3.org/2000/svg">
  <sodipodi:namedview
     id="namedview1"
     pagecolor="#ffffff"
     bordercolor="#666666"
     borderopacity="1.0"
     inkscape:showpageshadow="2"
     inkscape:pageopacity="0.0"
     inkscape:pagecheckerboard="0"
     inkscape:deskcolor="#d1d1d1"
     inkscape:document-units="mm"
     inkscape:zoom="3.175"
     inkscape:cx="144.56693"
     inkscape:cy="1.7322835"
     inkscape:window-width="1918"
     inkscape:window-height="1058"
     inkscape:window-x="1"
     inkscape:window-y="1080"
     inkscape:window-maximized="1"
     inkscape:current-layer="layer1" />
  <defs
     id="defs1" />
  <g
     inkscape:label="Layer 1"
     inkscape:groupmode="layer"
     id="layer1"
     transform="translate(0,-265)">
    <g
       id="g1"
       transform="translate(0.44241598,0.06835589)">
      <path
         style="fill:#000000;stroke:none;stroke-width:0.999999;stroke-linejoin:round;stroke-miterlimit:10"
         d="m 27.30025,271.65083 c -0.0948,-0.7343 -0.0128,-1.33423 0.076,-1.75789 1.01854,1.46769 2.66147,0.69104 2.68041,-0.56542 0.0154,-1.02033 -0.97123,-1.31301 -1.78575,-1.17793 -0.2759,0.0457 -0.62615,0.37357 -0.72284,0.27282 -0.12285,-0.12436 0.30943,-0.38942 0.39914,-0.66118 0.26656,-0.80746 0.08,-1.91126 -1.18869,-1.91126 -1.27677,0 -1.47978,1.09044 -1.23571,1.88458 0.09,0.29267 0.50946,0.55406 0.42068,0.68786 -0.10258,0.13715 -0.46875,-0.21627 -0.75868,-0.24252 -0.746,-0.0676 -1.61001,0.25114 -1.61001,1.14763 0,1.37257 1.69243,2.05559 2.60523,0.5976 0.20302,0.45511 0.13124,0.98252 0.0146,1.74106 0.29549,0.2161 0.87636,0.1966 1.10542,-0.0154 z"
         id="path50"
         sodipodi:nodetypes="ccsscssscsscccc" />
      <path
         style="fill:#000000;stroke:none;stroke-width:0.999999;stroke-linejoin:round;stroke-miterlimit:10"
         d="m 27.30025,279.57199 c -0.0948,-0.73431 -0.0128,-1.33422 0.076,-1.75788 1.01854,1.46767 2.66147,0.69103 2.68041,-0.56544 0.0154,-1.02033 -0.97123,-1.31301 -1.78575,-1.17793 -0.2759,0.0457 -0.62615,0.37358 -0.72284,0.27283 -0.12285,-0.12435 0.30943,-0.38942 0.39914,-0.66118 0.26656,-0.80745 0.08,-1.91127 -1.18869,-1.91127 -1.27677,0 -1.47978,1.09045 -1.23571,1.88458 0.09,0.29268 0.50946,0.55408 0.42068,0.68787 -0.10258,0.13715 -0.46875,-0.21627 -0.75868,-0.24252 -0.746,-0.0676 -1.61001,0.25114 -1.61001,1.14762 0,1.37259 1.69243,2.0556 2.60523,0.59761 0.20302,0.45509 0.13124,0.98252 0.0146,1.74106 0.29549,0.21609 0.87636,0.19659 1.10542,-0.0153 z"
         id="path51"
         sodipodi:nodetypes="ccsscssscsscccc" />
      <path
         style="fill:#000000;stroke:none;stroke-width:0.999999;stroke-linejoin:round;stroke-miterlimit:10"
         d="m 27.30025,290.26869 c -0.0948,0.7343 -0.0128,1.33422 0.076,1.75788 1.01854,-1.46768 2.66147,-0.69106 2.68041,0.56542 0.0154,1.02033 -0.97123,1.31302 -1.78575,1.17794 -0.2759,-0.0457 -0.62615,-0.37357 -0.72284,-0.27284 -0.12285,0.12437 0.30943,0.38945 0.39914,0.6612 0.26656,0.80745 0.08,1.91125 -1.18869,1.91125 -1.27677,0 -1.47978,-1.09044 -1.23571,-1.88458 0.09,-0.29267 0.50946,-0.55407 0.42068,-0.68787 -0.10258,-0.13714 -0.46875,0.21629 -0.75868,0.24254 -0.746,0.0676 -1.61001,-0.25114 -1.61001,-1.14763 0,-1.37258 1.69243,-2.0556 2.60523,-0.59761 0.20302,-0.4551 0.13124,-0.98251 0.0146,-1.74106 0.29549,-0.2161 0.87636,-0.1966 1.10542,0.0154 z"
         id="path62"
         sodipodi:nodetypes="ccsscssscsscccc" />
      <path
         style="fill:#000000;stroke:none;stroke-width:0.999999;stroke-linejoin:round;stroke-miterlimit:10"
         d="m 27.30025,282.34752 c -0.0948,0.7343 -0.0128,1.33423 0.076,1.75789 1.01854,-1.46769 2.66147,-0.69105 2.68041,0.56542 0.0154,1.02034 -0.97123,1.31302 -1.78575,1.17794 -0.2759,-0.0458 -0.62615,-0.37358 -0.72284,-0.27283 -0.12285,0.12436 0.30943,0.38943 0.39914,0.66119 0.26656,0.80745 0.08,1.91126 -1.18869,1.91126 -1.27677,0 -1.47978,-1.09044 -1.23571,-1.88457 0.09,-0.29268 0.50946,-0.55408 0.42068,-0.68788 -0.10258,-0.13715 -0.46875,0.21627 -0.75868,0.24252 -0.746,0.0676 -1.61001,-0.25113 -1.61001,-1.14763 0,-1.37257 1.69243,-2.05559 2.60523,-0.5976 0.20302,-0.4551 0.13124,-0.98252 0.0146,-1.74106 0.29549,-0.21609 0.87636,-0.19658 1.10542,0.0153 z"
         id="path63"
         sodipodi:nodetypes="ccsscssscsscccc" />
      <path
         style="fill:#000000;stroke:none;stroke-width:0.999999;stroke-linejoin:round;stroke-miterlimit:10"
         d="m 4.78379,271.59462 c -0.0948,-0.7343 -0.0128,-1.33423 0.076,-1.75789 1.01852,1.46769 2.66146,0.69104 2.6804,-0.56542 0.0154,-1.02033 -0.97123,-1.31301 -1.78575,-1.17794 -0.27589,0.0457 -0.62614,0.37358 -0.72283,0.27283 -0.12285,-0.12436 0.30941,-0.38943 0.39913,-0.66119 0.26655,-0.80745 0.0801,-1.91126 -1.18869,-1.91126 -1.27676,0 -1.47978,1.09045 -1.23571,1.88458 0.09,0.29268 0.50947,0.55407 0.42068,0.68787 -0.10257,0.13715 -0.46874,-0.21627 -0.75868,-0.24252 -0.74599,-0.0676 -1.61001,0.25114 -1.61001,1.14763 0,1.37257 1.69243,2.05559 2.60524,0.5976 0.20301,0.4551 0.13124,0.98252 0.0146,1.74105 0.29549,0.2161 0.87637,0.19659 1.10543,-0.0153 z"
         id="path66"
         sodipodi:nodetypes="ccsscssscsscccc" />
      <path
         style="fill:#000000;stroke:none;stroke-width:0.999999;stroke-linejoin:round;stroke-miterlimit:10"
         d="m 4.78379,279.51577 c -0.0948,-0.7343 -0.0128,-1.33422 0.076,-1.75788 1.01852,1.46768 2.66146,0.69105 2.6804,-0.56543 0.0154,-1.02033 -0.97123,-1.31301 -1.78575,-1.17793 -0.27589,0.0457 -0.62614,0.37357 -0.72283,0.27283 -0.12285,-0.12436 0.30941,-0.38943 0.39913,-0.66119 0.26655,-0.80744 0.0801,-1.91125 -1.18869,-1.91125 -1.27676,0 -1.47978,1.09044 -1.23571,1.88457 0.09,0.29268 0.50947,0.55408 0.42068,0.68787 -0.10257,0.13715 -0.46874,-0.21628 -0.75868,-0.24253 -0.74599,-0.0676 -1.61001,0.25114 -1.61001,1.14763 0,1.37258 1.69243,2.0556 2.60524,0.59761 0.20301,0.4551 0.13124,0.98251 0.0146,1.74106 0.29549,0.2161 0.87637,0.19659 1.10543,-0.0154 z"
         id="path67"
         sodipodi:nodetypes="ccsscssscsscccc" />
      <path
         style="fill:#000000;stroke:none;stroke-width:0.999999;stroke-linejoin:round;stroke-miterlimit:10"
         d="m 4.78379,290.21247 c -0.0948,0.73431 -0.0128,1.33423 0.076,1.75788 1.01852,-1.46768 2.66146,-0.69104 2.6804,0.56543 0.0154,1.02033 -0.97123,1.31302 -1.78575,1.17794 -0.27589,-0.0458 -0.62614,-0.37357 -0.72283,-0.27284 -0.12285,0.12436 0.30941,0.38943 0.39913,0.66119 0.26655,0.80745 0.0801,1.91126 -1.18869,1.91126 -1.27676,0 -1.47978,-1.09044 -1.23571,-1.88457 0.09,-0.29268 0.50947,-0.55408 0.42068,-0.68788 -0.10257,-0.13714 -0.46874,0.21629 -0.75868,0.24254 -0.74599,0.0676 -1.61001,-0.25115 -1.61001,-1.14763 0,-1.37258 1.69243,-2.0556 2.60524,-0.59761 0.20301,-0.4551 0.13124,-0.98253 0.0146,-1.74106 0.29549,-0.2161 0.87637,-0.19659 1.10543,0.0153 z"
         id="path68"
         sodipodi:nodetypes="ccsscssscsscccc" />
      <path
         style="fill:#000000;stroke:none;stroke-width:0.999999;stroke-linejoin:round;stroke-miterlimit:10"
         d="m 4.78379,282.29131 c -0.0948,0.7343 -0.0128,1.33423 0.076,1.75789 1.01852,-1.46769 2.66146,-0.69105 2.6804,0.56542 0.0154,1.02032 -0.97123,1.31301 -1.78575,1.17793 -0.27589,-0.0458 -0.62614,-0.37356 -0.72283,-0.27282 -0.12285,0.12436 0.30941,0.38942 0.39913,0.66119 0.26655,0.80745 0.0801,1.91125 -1.18869,1.91125 -1.27676,0 -1.47978,-1.09044 -1.23571,-1.88458 0.09,-0.29268 0.50947,-0.55406 0.42068,-0.68786 -0.10257,-0.13715 -0.46874,0.21628 -0.75868,0.24252 -0.74599,0.0676 -1.61001,-0.25113 -1.61001,-1.14763 0,-1.37257 1.69243,-2.05559 2.60524,-0.59759 0.20301,-0.45511 0.13124,-0.98254 0.0146,-1.74107 0.29549,-0.21609 0.87637,-0.19659 1.10543,0.0153 z"
         id="path69"
         sodipodi:nodetypes="ccsscssscsscccc" />
      <path
         style="fill:#000000;stroke:none;stroke-width:0.999999;stroke-linejoin:round;stroke-miterlimit:10"
         d="m 16.04203,283.56286 c -0.0947,-0.7343 -0.0128,-1.33422 0.0761,-1.75788 1.01852,1.46768 2.66146,0.69104 2.6804,-0.56543 0.0153,-1.02033 -0.97123,-1.31301 -1.78575,-1.17794 -0.27589,0.0458 -0.62614,0.37358 -0.72283,0.27283 -0.12285,-0.12435 0.30942,-0.38942 0.39914,-0.66118 0.26654,-0.80745 0.0801,-1.91126 -1.1887,-1.91126 -1.27676,0 -1.47978,1.09044 -1.23571,1.88457 0.09,0.29268 0.50947,0.55408 0.42068,0.68787 -0.10257,0.13715 -0.46874,-0.21627 -0.75867,-0.24252 -0.746,-0.0676 -1.61001,0.25114 -1.61001,1.14763 0,1.37258 1.69243,2.05559 2.60523,0.5976 0.20302,0.45511 0.13124,0.98253 0.0147,1.74107 0.2955,0.21609 0.87636,0.19659 1.10542,-0.0153 z"
         id="path70"
         sodipodi:nodetypes="ccsscssscsscccc" />
    </g>
  </g>
</svg>
