<?xml version="1.0" encoding="UTF-8" standalone="no"?>
<!-- Created with Inkscape (http://www.inkscape.org/) -->

<svg
   width="210mm"
   height="297mm"
   viewBox="0 0 210 297"
   version="1.1"
   id="svg1"
   inkscape:version="1.4.3 (0d15f75042, 2025-12-25)"
   sodipodi:docname="poker_J.svg"
   xmlns:inkscape="http://www.inkscape.org/namespaces/inkscape"
   xmlns:sodipodi="http://sodipodi.sourceforge.net/DTD/sodipodi-0.dtd"
   xmlns="http://www.w3.org/2000/svg"
   xmlns:svg="http://www.w3.org/2000/svg">
  <sodipodi:namedview
     id="namedview1"
     pagecolor="#ffffff"
     bordercolor="#666666"
     borderopacity="1.0"
     inkscape:showpageshadow="2"
     inkscape:pageopacity="0.0"
     inkscape:pagecheckerboard="0"
     inkscape:deskcolor="#d1d1d1"
     inkscape:document-units="mm"
     inkscape:zoom="0.79464085"
     inkscape:cx="616.63077"
     inkscape:cy="576.99022"
     inkscape:window-width="1918"
     inkscape:window-height="1058"
     inkscape:window-x="1"
     inkscape:window-y="1080"
     inkscape:window-maximized="1"
     inkscape:current-layer="layer1" />
  <defs
     id="defs1" />
  <g
     inkscape:label="Layer 1"
     inkscape:groupmode="layer"
     id="layer1">
    <path
       d="m 141.03546,169.32549 0.49389,0.0593 c 1.02729,0.11854 1.26435,0.51365 1.28411,2.17312 v 4.46476 c 0,2.48921 -0.13829,3.43748 -0.63218,4.2277 -0.49389,0.79023 -1.46191,1.22485 -2.68676,1.22485 -0.96803,0 -1.69898,-0.25682 -2.2719,-0.80998 -0.37535,-0.3556 -0.57291,-0.75071 -0.57291,-1.12607 0,-0.31609 0.0988,-0.51364 0.39511,-0.79022 0.35561,-0.31609 0.49389,-0.59267 0.49389,-0.94827 0,-0.65194 -0.43462,-1.0668 -1.08655,-1.0668 -0.90876,0 -1.54094,0.73095 -1.54094,1.75824 0,1.12607 0.69145,2.35092 1.75825,3.06212 0.82973,0.55316 1.99531,0.86925 3.20041,0.86925 1.778,0 3.43747,-0.69145 4.22769,-1.75825 0.57292,-0.75071 0.69145,-1.4224 0.69145,-3.63503 v -5.4723 c 0.0198,-1.65947 0.25682,-2.05458 1.28411,-2.17312 l 0.49389,-0.0593 v -0.61243 h -5.53156 z"
       id="text6"
       style="font-size:19.7556px;line-height:100%;font-family:'URW Bookman';-inkscape-font-specification:'URW Bookman, Normal';text-align:center;letter-spacing:0px;word-spacing:0px;text-anchor:middle;white-space:pre;stroke-width:0.2;stroke-miterlimit:10"
       aria-label="J" />
    <path
       style="fill:#000000;stroke:none;stroke-width:0.999999;stroke-linejoin:round;stroke-miterlimit:10"
       d="m 154.47858,156.36875 c 0.5266,0.93516 0.7347,2.03245 0.53723,3.47769 2.36968,-0.0424 3.01806,-1.22507 3.78318,-2.92533 2.24932,0.98869 2.49661,5.89276 0.13112,7.15715 -1.00138,-1.40721 -1.28938,-2.86458 -3.85981,-2.83109 0.0326,0.83269 -0.0354,15.94093 0.12819,16.6622 1.4121,0.022 1.44676,0.89398 0.004,0.99958 0,0.85014 0.39357,4.40012 -0.6936,4.4413 -1.19007,0.0451 -0.45797,-3.76254 -0.65545,-4.44264 -1.60887,-0.0827 -1.7454,-0.93245 -0.10265,-1.04074 0.0991,-0.60452 0.0395,-15.78924 -0.0588,-16.66086 -1.05874,0.0416 -2.51966,-0.0143 -3.0096,-0.56508 0.42866,-0.57498 2.03148,-0.77525 3.08466,-0.77525 -0.036,-1.48505 -0.0119,-2.51926 0.71206,-3.49693 z"
       id="path7"
       sodipodi:nodetypes="cccccccsccccccc" />
    <path
       id="path97"
       style="fill:#000000;stroke-width:1;stroke-linejoin:round;stroke-miterlimit:10"
       d="m 134.41182,159.97904 c 0.2875,-0.0508 1.25564,1.78677 0.31164,1.88336 -1.07793,0.11029 -0.61798,-1.82924 -0.31164,-1.88336 z m 3.67185,-0.10839 c 0.31198,0.0132 1.01614,1.77079 0.0406,1.78851 -1.0568,0.0192 -0.44724,-1.80572 -0.0406,-1.78851 z m 4.18672,0.0136 c 0.22918,0.028 0.83803,1.82661 -0.12193,1.73431 -1.00164,-0.0963 -0.23064,-1.77745 0.12193,-1.73431 z m 3.57701,0.35229 c 0.31721,0.0544 0.60039,1.8529 -0.27098,1.69366 -0.90546,-0.16546 -0.0313,-1.74551 0.27098,-1.69366 z m -15.40782,-0.93716 v -5e-5 c 0.36025,0.98837 0.84221,3.05897 1.66341,3.76285 2.14098,-0.82117 11.29143,-0.90915 15.92533,-0.0293 0.67456,-0.52793 1.49575,-2.58091 2.1703,-3.78337 -0.56883,-0.56393 -2.85082,-1.36765 -4.29967,0.20133 -0.58129,-0.95662 -2.65096,-1.27333 -3.66757,-0.19323 -0.86111,-1.04736 -3.13867,-1.02164 -4.19919,0.0207 -1.10048,-1.11064 -2.9096,-0.82841 -3.70806,0.14854 -1.44652,-0.79443 -2.7563,-0.69254 -3.88455,-0.12747 z"
       sodipodi:nodetypes="sssssssssssscccccccccc" />
  </g>
</svg>
