<?xml version="1.0" encoding="UTF-8" standalone="no"?>
<!-- Created with Inkscape (http://www.inkscape.org/) -->

<svg
   width="210mm"
   height="297mm"
   viewBox="0 0 210 297"
   version="1.1"
   id="svg1"
   inkscape:version="1.4.3 (0d15f75042, 2025-12-25)"
   sodipodi:docname="poker_K.svg"
   xmlns:inkscape="http://www.inkscape.org/namespaces/inkscape"
   xmlns:sodipodi="http://sodipodi.sourceforge.net/DTD/sodipodi-0.dtd"
   xmlns="http://www.w3.org/2000/svg"
   xmlns:svg="http://www.w3.org/2000/svg">
  <sodipodi:namedview
     id="namedview1"
     pagecolor="#ffffff"
     bordercolor="#666666"
     borderopacity="1.0"
     inkscape:showpageshadow="2"
     inkscape:pageopacity="0.0"
     inkscape:pagecheckerboard="0"
     inkscape:deskcolor="#d1d1d1"
     inkscape:document-units="mm"
     inkscape:zoom="0.79464085"
     inkscape:cx="396.4055"
     inkscape:cy="561.88906"
     inkscape:window-width="1918"
     inkscape:window-height="1058"
     inkscape:window-x="1"
     inkscape:window-y="1080"
     inkscape:window-maximized="1"
     inkscape:current-layer="layer1" />
  <defs
     id="defs1" />
  <g
     inkscape:label="Layer 1"
     inkscape:groupmode="layer"
     id="layer1">
    <path
       d="m 108.45384,154.39021 v -0.59266 c -1.34338,-0.29634 -1.85702,-0.69145 -2.82505,-2.19288 l -3.75356,-6.12423 2.37067,-2.07434 c 1.20509,-1.02729 2.2719,-1.63972 3.14114,-1.81752 l 0.13829,-0.0395 v -0.61242 h -5.6501 v 0.61242 c 0.59267,0.0593 0.73096,0.079 0.86925,0.13829 0.31609,0.11854 0.47413,0.37536 0.47413,0.69145 0,0.45438 -0.15804,0.67169 -1.16558,1.56069 -0.23707,0.19756 -0.37536,0.33585 -0.45438,0.39511 l -0.11853,0.0988 -3.476988,3.14114 v -3.79307 c 0.01976,-1.63972 0.256822,-2.05459 1.284114,-2.17312 l 0.809984,-0.0593 v -0.61242 h -5.847662 v 0.61242 l 0.49389,0.0593 c 1.027291,0.11853 1.264358,0.51365 1.284114,2.17312 v 7.76395 c -0.01976,1.65947 -0.256823,2.05458 -1.284114,2.17311 l -0.49389,0.0593 v 0.61242 h 5.847662 v -0.61242 l -0.809984,-0.0593 c -1.027292,-0.11853 -1.264359,-0.5334 -1.284114,-2.17311 v -2.74603 l 2.291648,-2.03483 3.18065,5.07719 c 0.33585,0.55316 0.45438,0.82974 0.45438,1.10631 0,0.49389 -0.33584,0.71121 -1.20509,0.79023 -0.0593,0 -0.19756,0.0197 -0.3556,0.0395 v 0.61242 z"
       id="text10"
       style="font-size:19.7556px;line-height:100%;font-family:'URW Bookman';-inkscape-font-specification:'URW Bookman, Normal';text-align:center;letter-spacing:0px;word-spacing:0px;text-anchor:middle;white-space:pre;stroke-width:0.2;stroke-miterlimit:10"
       aria-label="K" />
    <path
       id="path11"
       style="fill:#000000;stroke:none;stroke-width:1;stroke-linejoin:round;stroke-miterlimit:10"
       d="m 116.52281,130.45057 c 0.84555,3.80016 0.6179,13.59227 0,15.89338 -0.55286,-2.49931 -0.97563,-12.07912 0,-15.89338 z m 0,-3.71515 c -1.56101,2.11147 -3.19299,10.06598 -0.98155,22.26107 -2.01473,0.42003 -3.3507,-0.29138 -3.31846,0.94318 0.0349,1.33575 1.49306,0.55922 3.18838,1.10017 0.26016,4.79722 -0.80687,6.05097 1.11163,6.00534 1.78851,-0.0425 0.70955,-1.15537 1.00224,-6.07344 2.00133,-0.45043 3.49172,0.25833 3.49172,-1.03207 0,-0.97909 -1.44094,-0.60341 -3.49172,-0.94318 2.08136,-12.66881 0.33114,-20.25177 -1.00224,-22.26107 z"
       sodipodi:nodetypes="cccccscscscc" />
    <path
       id="path92"
       style="fill:#000000;stroke-width:1;stroke-linejoin:round;stroke-miterlimit:10"
       d="m 91.892368,130.90568 c -0.195639,0.39934 1.130532,1.41796 1.494601,2.41436 0.276511,0.75676 0.344908,1.51376 0.517361,1.70538 0.172453,0.19161 1.776453,-0.50335 2.529323,-0.67066 0.86228,-0.19161 3.06585,-0.15329 3.19999,-0.44071 0.20755,-0.44473 -0.76932,-0.45773 -0.76647,-1.91616 0.002,-0.99736 1.175497,-1.39713 0.97724,-1.66705 -0.19516,-0.2657 -7.721796,0.10485 -7.952045,0.57484 z m 10.040652,-0.51736 c -0.21078,0.32575 0.85853,0.50874 0.84311,1.6479 -0.0181,1.34023 -1.36735,1.49951 -0.9964,1.9928 0.15664,0.2083 2.62514,0.17245 3.81315,0.47904 1.18802,0.30658 1.97409,0.97416 2.26107,0.76646 0.26706,-0.19329 0.28742,-1.14969 0.67064,-2.22274 0.20784,-0.58194 1.36044,-1.57125 1.28384,-1.91616 -0.13419,-0.44071 -7.66463,-1.13053 -7.87541,-0.7473 z m -9.045752,6.65155 c 0,-3.95796 -2.476989,-4.81099 -3.98727,-8.24817 2.916402,2.08314 4.166284,0.62495 4.999528,-0.62494 1.458197,1.87482 3.411147,1.35404 4.556867,-0.15623 1.09365,1.51027 2.629957,1.90086 4.608947,0 1.58839,2.03105 3.25489,1.71859 4.53082,0.31247 0.91138,1.69255 2.52579,2.3956 4.97348,0.36454 -1.84877,3.85381 -3.96236,4.30463 -3.88425,8.3407 -4.1142,-2.55183 -12.360947,-2.48814 -15.798122,0.0116 z"
       sodipodi:nodetypes="sssssssscsssssccscccccccss" />
  </g>
</svg>
