<?xml version="1.0" encoding="UTF-8" standalone="no"?>
<!-- Created with Inkscape (http://www.inkscape.org/) -->

<svg
   width="32mm"
   height="32mm"
   viewBox="0 0 32 32"
   version="1.1"
   id="svg1"
   inkscape:version="1.4.3 (0d15f75042, 2025-12-25)"
   sodipodi:docname="poker2_J.svg"
   xmlns:inkscape="http://www.inkscape.org/namespaces/inkscape"
   xmlns:sodipodi="http://sodipodi.sourceforge.net/DTD/sodipodi-0.dtd"
   xmlns="http://www.w3.org/2000/svg"
   xmlns:svg="http://www.w3.org/2000/svg">
  <sodipodi:namedview
     id="namedview1"
     pagecolor="#ffffff"
     bordercolor="#666666"
     borderopacity="1.0"
     inkscape:showpageshadow="2"
     inkscape:pageopacity="0.0"
     inkscape:pagecheckerboard="0"
     inkscape:deskcolor="#d1d1d1"
     inkscape:document-units="mm"
     inkscape:zoom="3.175"
     inkscape:cx="144.56693"
     inkscape:cy="1.5748031"
     inkscape:window-width="1918"
     inkscape:window-height="1059"
     inkscape:window-x="1"
     inkscape:window-y="0"
     inkscape:window-maximized="1"
     inkscape:current-layer="layer1" />
  <defs
     id="defs1" />
  <g
     inkscape:label="Layer 1"
     inkscape:groupmode="layer"
     id="layer1"
     transform="translate(0,-265)">
    <path
       id="text2"
       style="font-size:19.8465px;line-height:100%;font-family:'URW Bookman';-inkscape-font-specification:'URW Bookman, Normal';text-align:center;letter-spacing:0px;word-spacing:0px;text-anchor:middle;white-space:pre;stroke-width:0.2;stroke-miterlimit:10"
       inkscape:transform-center-x="1.8851648"
       inkscape:transform-center-y="-9.2024098"
       d="m 15.680135,269.53045 v 0.61547 l 0.4961,0.0594 c 1.03202,0.11908 1.26999,0.51571 1.28984,2.18281 v 4.48551 c 0,0.72702 -0.0115,1.32317 -0.0403,1.82263 -1.76132,0.0168 -3.39751,0.70771 -4.18165,1.7663 -0.34261,0.44893 -0.52364,0.86966 -0.61392,1.60559 -0.28962,-0.12995 -0.54777,-0.30619 -0.78031,-0.53072 -0.37709,-0.35724 -0.57568,-0.75411 -0.57568,-1.13119 0,-0.31754 0.0992,-0.5159 0.39688,-0.79375 0.35724,-0.31754 0.49609,-0.59517 0.49609,-0.9524 0,-0.65494 -0.43647,-1.07177 -1.09141,-1.07177 -0.91294,0 -1.54822,0.73428 -1.54822,1.7663 0,1.13125 0.69458,2.36183 1.7663,3.0763 0.36657,0.24438 0.79845,0.44256 1.2702,0.58808 -0.0105,0.31803 -0.0145,0.67937 -0.0145,1.09502 v 5.49734 c -0.0198,1.66711 -0.25834,2.06426 -1.29036,2.18333 l -0.49609,0.0594 v 0.61546 h 5.55728 v -0.61546 l -0.49609,-0.0594 c -1.03202,-0.11907 -1.27051,-0.51622 -1.29036,-2.18333 v -4.485 c 0,-0.72702 0.012,-1.32316 0.0408,-1.82263 1.76132,-0.0168 3.39752,-0.70771 4.18166,-1.7663 0.3426,-0.44893 0.52312,-0.86966 0.6134,-1.60558 0.28962,0.12994 0.54829,0.30619 0.78083,0.53071 0.37709,0.35724 0.57568,0.75412 0.57568,1.1312 0,0.31755 -0.0992,0.5159 -0.39688,0.79375 -0.35723,0.31755 -0.49661,0.59516 -0.49661,0.9524 0,0.65493 0.43698,1.07177 1.09192,1.07177 0.91294,0 1.54771,-0.73428 1.54771,-1.7663 0,-1.13125 -0.69459,-2.36183 -1.7663,-3.0763 -0.36657,-0.24438 -0.79845,-0.44257 -1.2702,-0.58808 0.0105,-0.31803 0.015,-0.67937 0.015,-1.09502 v -5.49786 c 0.0198,-1.6671 0.25783,-2.06373 1.28985,-2.18281 l 0.49609,-0.0594 v -0.61547 z m 1.64848,10.1477 c -0.0973,0.62743 -0.25482,1.05429 -0.49764,1.44281 -0.42113,0.67381 -1.1851,1.0899 -2.15904,1.20044 0.0973,-0.62743 0.2543,-1.05376 0.49712,-1.44228 0.42114,-0.67382 1.18562,-1.09042 2.15956,-1.20097 z" />
    <path
       style="fill:#000000;stroke:none;stroke-width:1;stroke-linejoin:round;stroke-miterlimit:10"
       d="m 25.524186,295.5 c -0.293712,-0.86976 -0.293942,-1.8251 0.102073,-3.00829 -1.998318,-0.34154 -2.731502,0.54916 -3.645172,1.85634 -1.733027,-1.18899 -1.160231,-5.34991 1.029092,-6.036 0.617593,1.34207 0.627653,2.61274 2.793257,2.99376 0.105136,-0.70501 2.567285,-13.39168 2.544584,-14.02391 -1.183262,-0.24325 -1.073587,-0.98163 0.156168,-0.84064 0.135328,-0.71449 0.369642,-3.76067 1.289902,-3.62221 1.007351,0.15151 -0.214033,3.23507 -0.156323,3.83808 1.338983,0.32557 1.31846,1.06151 -0.0794,0.89102 -0.179547,0.49228 -2.546579,13.26355 -2.602694,14.01173 0.896425,0.13356 2.115341,0.41308 2.439429,0.954 -0.451781,0.41499 -1.830731,0.32817 -2.715865,0.16052 -0.206132,1.25382 -0.391,2.11917 -1.155089,2.82559 z"
       id="path89"
       sodipodi:nodetypes="cccccccsccccccc"
       inkscape:transform-center-x="-9.7944296"
       inkscape:transform-center-y="3.1572375" />
    <path
       style="fill:#000000;stroke:none;stroke-width:1;stroke-linejoin:round;stroke-miterlimit:10"
       d="m 6.475814,266.5 c 0.293712,0.86976 0.293942,1.8251 -0.102073,3.00829 1.998318,0.34154 2.731502,-0.54916 3.645172,-1.85634 1.733027,1.18899 1.160231,5.34991 -1.029092,6.036 -0.617593,-1.34207 -0.627653,-2.61274 -2.793257,-2.99376 -0.105136,0.70501 -2.567285,13.39168 -2.544584,14.02391 1.183262,0.24325 1.073587,0.98163 -0.156168,0.84064 -0.135328,0.71449 -0.369642,3.76067 -1.289902,3.62221 -1.007351,-0.15151 0.214033,-3.23507 0.156323,-3.83808 -1.338983,-0.32557 -1.31846,-1.06151 0.0794,-0.89102 0.179547,-0.49228 2.546579,-13.26355 2.602694,-14.01173 -0.896425,-0.13356 -2.115341,-0.41308 -2.439429,-0.954 0.451781,-0.41499 1.830731,-0.32817 2.715865,-0.16052 0.206132,-1.25382 0.391,-2.11917 1.155089,-2.82559 z"
       id="path1"
       sodipodi:nodetypes="cccccccsccccccc"
       inkscape:transform-center-x="9.7944296"
       inkscape:transform-center-y="-3.1572393" />
  </g>
</svg>
