<?xml version="1.0" encoding="UTF-8" standalone="no"?>
<!-- Created with Inkscape (http://www.inkscape.org/) -->

<svg
   width="32mm"
   height="32mm"
   viewBox="0 0 32 32"
   version="1.1"
   id="svg1"
   inkscape:version="1.4.3 (0d15f75042, 2025-12-25)"
   sodipodi:docname="poker2_A.svg"
   xmlns:inkscape="http://www.inkscape.org/namespaces/inkscape"
   xmlns:sodipodi="http://sodipodi.sourceforge.net/DTD/sodipodi-0.dtd"
   xmlns="http://www.w3.org/2000/svg"
   xmlns:svg="http://www.w3.org/2000/svg">
  <sodipodi:namedview
     id="namedview1"
     pagecolor="#ffffff"
     bordercolor="#666666"
     borderopacity="1.0"
     inkscape:showpageshadow="2"
     inkscape:pageopacity="0.0"
     inkscape:pagecheckerboard="0"
     inkscape:deskcolor="#d1d1d1"
     inkscape:document-units="mm"
     inkscape:zoom="3.175"
     inkscape:cx="117.16535"
     inkscape:cy="10.07874"
     inkscape:window-width="1918"
     inkscape:window-height="1059"
     inkscape:window-x="1"
     inkscape:window-y="0"
     inkscape:window-maximized="1"
     inkscape:current-layer="layer1" />
  <defs
     id="defs1" />
  <g
     inkscape:label="Layer 1"
     inkscape:groupmode="layer"
     id="layer1"
     transform="translate(0,-265)">
    <path
       id="path37"
       style="fill:#000000;stroke:none;stroke-width:0.1;stroke-linejoin:round;stroke-miterlimit:10"
       d="m 15.980835,277.00093 c 0.522786,0.70923 2.662515,1.51107 3.515459,2.29045 1.586968,1.45009 2.078079,2.52455 1.243447,3.64984 -0.535329,0.72176 -1.791426,0.87673 -3.155058,-0.41113 -0.282272,-0.26659 -1.028316,-0.57333 -1.584612,-0.13746 -0.492648,-0.47062 -1.313204,-0.13132 -1.60448,0.12857 -1.16461,1.03912 -2.380571,1.4577 -3.115338,0.42002 -0.817224,-1.15412 -0.161686,-2.04513 1.559301,-3.64984 0.800902,-0.7468 2.512616,-1.54913 3.141281,-2.29045 z m 0.01924,-1.84632 c -0.94531,1.99545 -4.000901,2.53828 -5.886253,5.44665 -0.7391266,1.14019 -0.1880577,2.74752 0.41905,3.35257 0.619368,0.61728 2.351485,1.36172 3.738804,0.0389 0.657792,-0.62717 1.401969,-0.64957 1.728399,-0.003 0.32643,-0.64667 1.070599,-0.62433 1.728392,0.003 1.387318,1.32276 3.11939,0.57831 3.738768,-0.0389 0.607098,-0.60505 1.111114,-2.17862 0.418723,-3.35257 -1.690517,-2.86627 -4.940574,-3.4512 -5.885883,-5.44665 z m -3.6e-5,-1.6769 c 1.832039,3.27494 7.320018,4.6432 7.320018,8.25315 0,5.4477 -5.353782,4.54418 -6.420725,2.90102 -0.859067,-0.052 -0.335146,1.97412 -0.899322,1.97412 -0.594704,0 0.105487,-1.99312 -0.838269,-1.97412 -1.066937,1.64316 -6.4818058,2.54668 -6.4818058,-2.90102 0,-3.81398 5.5717028,-5.00768 7.3201038,-8.25315 z m 1.4e-5,-2.49222 c -4.814511,6.76322 -8.8677308,5.97271 -8.8677308,10.6915 0,6.73169 6.2049958,6.79775 7.6726088,4.61986 0.211773,1.79849 -1.213811,3.54203 -2.378153,4.71765 1.216608,-0.2705 3.120491,-0.24239 3.573261,-0.24239 0.452762,0 2.356612,-0.0281 3.573184,0.24239 -1.122218,-1.11246 -2.58992,-2.91916 -2.378161,-4.71765 1.467627,2.17789 7.672623,2.11183 7.672623,-4.61986 0,-4.3228 -4.078092,-3.96337 -8.867632,-10.6915 z"
       sodipodi:nodetypes="cssscsssccssscsssccscscsccsccsccsc" />
  </g>
</svg>
