<?xml version="1.0" encoding="UTF-8" standalone="no"?>
<!-- Created with Inkscape (http://www.inkscape.org/) -->

<svg
   width="32mm"
   height="32mm"
   viewBox="0 0 32 32"
   version="1.1"
   id="svg1"
   inkscape:version="1.4.3 (0d15f75042, 2025-12-25)"
   sodipodi:docname="poker2_K.svg"
   xmlns:inkscape="http://www.inkscape.org/namespaces/inkscape"
   xmlns:sodipodi="http://sodipodi.sourceforge.net/DTD/sodipodi-0.dtd"
   xmlns="http://www.w3.org/2000/svg"
   xmlns:svg="http://www.w3.org/2000/svg">
  <sodipodi:namedview
     id="namedview1"
     pagecolor="#ffffff"
     bordercolor="#666666"
     borderopacity="1.0"
     inkscape:showpageshadow="2"
     inkscape:pageopacity="0.0"
     inkscape:pagecheckerboard="0"
     inkscape:deskcolor="#d1d1d1"
     inkscape:document-units="mm"
     inkscape:zoom="3.175"
     inkscape:cx="141.10236"
     inkscape:cy="44.724409"
     inkscape:window-width="1918"
     inkscape:window-height="1059"
     inkscape:window-x="1"
     inkscape:window-y="0"
     inkscape:window-maximized="1"
     inkscape:current-layer="layer1" />
  <defs
     id="defs1" />
  <g
     inkscape:label="Layer 1"
     inkscape:groupmode="layer"
     id="layer1"
     transform="translate(0,-265)">
    <path
       id="text37"
       style="font-size:17.6389px;line-height:100%;font-family:'URW Bookman';-inkscape-font-specification:'URW Bookman, Normal';text-align:center;letter-spacing:0px;word-spacing:0px;text-anchor:middle;white-space:pre;stroke-width:0.2;stroke-miterlimit:10"
       inkscape:transform-center-x="1.4660346"
       inkscape:transform-center-y="-7.9421626"
       d="m 5.46602,269.25265 v 0.54674 l 0.4408,0.0527 c 0.91722,0.10583 1.12906,0.45878 1.1467,1.94045 v 6.93188 c -0.0176,1.48167 -0.22948,1.83461 -1.1467,1.94045 l -0.4408,0.0527 v 0.54673 h 5.22087 v -0.54673 l -0.72295,-0.0527 c -0.91722,-0.10584 -1.12907,-0.47642 -1.1467,-1.94045 v -2.45153 l 2.04638,-1.81695 2.83962,4.53306 c 0.29986,0.49389 0.40566,0.74111 0.40566,0.98805 0,0.44098 -0.29979,0.63483 -1.0759,0.70539 -0.0529,0 -0.17618,0.0175 -0.31729,0.0351 v 0.54673 h 1.13584 c 1.19944,0.26459 1.65802,0.61747 2.52233,1.95802 l 3.35122,5.46789 -2.11667,1.85208 c -1.07597,0.91722 -2.02837,1.46441 -2.80448,1.62316 l -0.12351,0.0351 v 0.54673 h 5.04466 v -0.54673 c -0.52917,-0.0529 -0.65271,-0.0706 -0.77618,-0.12351 -0.28222,-0.10583 -0.42323,-0.33531 -0.42323,-0.61753 0,-0.4057 0.14118,-0.59945 1.04076,-1.3932 0.21167,-0.17639 0.3351,-0.30003 0.40566,-0.35295 l 0.10594,-0.0879 3.1042,-2.805 v 3.38688 c -0.0176,1.46403 -0.22896,1.83461 -1.14618,1.94045 l -0.72347,0.0527 v 0.54673 h 5.22138 v -0.54673 l -0.44131,-0.0527 c -0.91722,-0.10584 -1.12856,-0.45879 -1.14619,-1.94045 v -6.93188 c 0.0176,-1.48167 0.22897,-1.83462 1.14619,-1.94045 l 0.44131,-0.0532 v -0.54674 H 21.3126 v 0.54674 l 0.72347,0.0532 c 0.91722,0.10583 1.12854,0.47642 1.14618,1.94045 v 2.45153 l -2.04587,1.81694 -2.84014,-4.53305 c -0.29986,-0.49389 -0.40566,-0.74111 -0.40566,-0.98806 0,-0.44097 0.30031,-0.63482 1.07642,-0.70538 0.0529,0 0.17619,-0.018 0.3173,-0.0357 v -0.54674 h -1.13585 c -1.19944,-0.26458 -1.65802,-0.61694 -2.52233,-1.9575 l -3.35173,-5.4684 2.11667,-1.85208 c 1.07597,-0.91723 2.02837,-1.46389 2.80448,-1.62264 l 0.1235,-0.0351 v -0.54674 h -5.04465 v 0.54674 c 0.52917,0.0529 0.65271,0.0706 0.77618,0.1235 0.28222,0.10584 0.42323,0.3348 0.42323,0.61702 0,0.4057 -0.14118,0.59996 -1.04076,1.39371 -0.21167,0.17639 -0.33511,0.29952 -0.40566,0.35244 l -0.10542,0.0884 -3.10472,2.80448 v -3.38636 c 0.0176,-1.46403 0.22948,-1.83462 1.1467,-1.94045 l 0.72295,-0.0527 v -0.54674 z" />
    <path
       id="path48"
       style="fill:#000000;stroke:none;stroke-width:1;stroke-linejoin:round;stroke-miterlimit:10"
       d="m 20.11708,265.93678 c -0.174978,0.28084 -0.251157,0.61073 -0.238971,0.93406 l 6.4699,10.29016 0.592158,-0.37233 z m -0.537777,-0.8553 c 0.675225,-0.0255 1.228565,0.0212 1.890311,0.37115 0.363199,0.57766 6.506247,10.34799 6.742935,10.72444 0.812253,-0.49143 1.065517,-0.78448 1.415466,-0.18988 0.425874,0.72364 -0.607224,0.79689 -1.328155,1.6517 1.466152,2.639 2.453127,2.94907 1.41728,3.56647 -0.965663,0.57559 -0.763902,-0.37729 -2.564568,-2.89567 -1.215305,0.42978 -1.771095,1.30533 -2.202695,0.61887 -0.32749,-0.52085 -0.0052,-0.62262 0.876678,-1.25131 -0.417538,-0.66408 -6.365771,-10.12765 -6.741539,-10.72532 0.03521,-0.84276 0.180653,-1.25574 0.494118,-1.87034 z"
       sodipodi:nodetypes="ccccccccscscsccc"
       inkscape:transform-center-x="-8.6153301"
       inkscape:transform-center-y="-7.7783382" />
    <path
       id="path1"
       style="fill:#000000;stroke:none;stroke-width:1;stroke-linejoin:round;stroke-miterlimit:10"
       d="m 11.88292,296.06322 c 0.174978,-0.28084 0.251157,-0.61073 0.238971,-0.93406 L 5.6519909,284.839 l -0.592158,0.37233 z m 0.537777,0.8553 c -0.675225,0.0255 -1.228565,-0.0212 -1.890311,-0.37115 -0.363199,-0.57766 -6.5062471,-10.34799 -6.7429351,-10.72444 -0.812253,0.49143 -1.065517,0.78448 -1.415466,0.18988 -0.425874,-0.72364 0.607224,-0.79689 1.328155,-1.6517 -1.466152,-2.639 -2.453127,-2.94907 -1.41728,-3.56647 0.965663,-0.57559 0.763902,0.37729 2.564568,2.89567 1.215305,-0.42978 1.771095,-1.30533 2.202695,-0.61887 0.32749,0.52085 0.0052,0.62262 -0.876678,1.25131 0.417538,0.66408 6.3657711,10.12765 6.7415391,10.72532 -0.03521,0.84276 -0.180653,1.25574 -0.494118,1.87034 z"
       sodipodi:nodetypes="ccccccccscscsccc"
       inkscape:transform-center-x="8.6153301"
       inkscape:transform-center-y="7.7783365" />
  </g>
</svg>
